<svg xmlns="http://www.w3.org/2000/svg" viewBox="0 0 760 390" width="760" height="390">
  <defs>
    <clipPath id="box1"><rect x="60"  y="38" width="200" height="134" rx="5"/></clipPath>
    <clipPath id="box2"><rect x="280" y="38" width="200" height="134" rx="5"/></clipPath>
    <clipPath id="box3"><rect x="500" y="38" width="200" height="134" rx="5"/></clipPath>
    <clipPath id="row-px"><rect x="80" y="238" width="540" height="30" rx="4"/></clipPath>
    <clipPath id="row-py"><rect x="80" y="280" width="540" height="30" rx="4"/></clipPath>
    <clipPath id="row-hp"><rect x="80" y="322" width="540" height="30" rx="4"/></clipPath>
  </defs>

  <!-- background -->
  <rect width="760" height="390" fill="#f8fafc" rx="8"/>

  <!-- ── OOP ── -->
  <text x="380" y="20" text-anchor="middle" font-family="sans-serif" font-size="11" fill="#64748b">OOP — to update position, the whole object is loaded</text>

  <!-- box 1 -->
  <text x="160" y="34" text-anchor="middle" font-family="ui-monospace,monospace" font-size="10" fill="#94a3b8">entity 1</text>
  <g clip-path="url(#box1)">
    <rect x="60"  y="38"  width="200" height="66" fill="#dcfce7"/>
    <rect x="60"  y="104" width="200" height="68" fill="#f1f5f9"/>
    <line x1="60"  y1="68"  x2="260" y2="68"  stroke="#bbf7d0" stroke-width="1"/>
    <line x1="60"  y1="126" x2="260" y2="126" stroke="#e2e8f0" stroke-width="1"/>
    <line x1="60"  y1="148" x2="260" y2="148" stroke="#e2e8f0" stroke-width="1"/>
  </g>
  <rect x="60"  y="38" width="200" height="134" rx="5" fill="none" stroke="#cbd5e1" stroke-width="1"/>
  <text x="75"  y="59"  font-family="ui-monospace,monospace" font-size="11" fill="#15803d">x:  10</text>
  <text x="75"  y="91"  font-family="ui-monospace,monospace" font-size="11" fill="#15803d">y:   4</text>
  <text x="75"  y="120" font-family="ui-monospace,monospace" font-size="11" fill="#94a3b8">hp:  80</text>
  <text x="75"  y="142" font-family="ui-monospace,monospace" font-size="11" fill="#94a3b8">name: "Kris"</text>
  <text x="75"  y="164" font-family="ui-monospace,monospace" font-size="11" fill="#cbd5e1">inventory, ai…</text>

  <!-- box 2 -->
  <text x="380" y="34" text-anchor="middle" font-family="ui-monospace,monospace" font-size="10" fill="#94a3b8">entity 2</text>
  <g clip-path="url(#box2)">
    <rect x="280" y="38"  width="200" height="66" fill="#dcfce7"/>
    <rect x="280" y="104" width="200" height="68" fill="#f1f5f9"/>
    <line x1="280" y1="68"  x2="480" y2="68"  stroke="#bbf7d0" stroke-width="1"/>
    <line x1="280" y1="126" x2="480" y2="126" stroke="#e2e8f0" stroke-width="1"/>
    <line x1="280" y1="148" x2="480" y2="148" stroke="#e2e8f0" stroke-width="1"/>
  </g>
  <rect x="280" y="38" width="200" height="134" rx="5" fill="none" stroke="#cbd5e1" stroke-width="1"/>
  <text x="295" y="59"  font-family="ui-monospace,monospace" font-size="11" fill="#15803d">x:  55</text>
  <text x="295" y="91"  font-family="ui-monospace,monospace" font-size="11" fill="#15803d">y:   9</text>
  <text x="295" y="120" font-family="ui-monospace,monospace" font-size="11" fill="#94a3b8">hp:  50</text>
  <text x="295" y="142" font-family="ui-monospace,monospace" font-size="11" fill="#94a3b8">name: "Ali"</text>
  <text x="295" y="164" font-family="ui-monospace,monospace" font-size="11" fill="#cbd5e1">inventory, ai…</text>

  <!-- box 3 -->
  <text x="600" y="34" text-anchor="middle" font-family="ui-monospace,monospace" font-size="10" fill="#94a3b8">entity 3</text>
  <g clip-path="url(#box3)">
    <rect x="500" y="38"  width="200" height="66" fill="#dcfce7"/>
    <rect x="500" y="104" width="200" height="68" fill="#f1f5f9"/>
    <line x1="500" y1="68"  x2="700" y2="68"  stroke="#bbf7d0" stroke-width="1"/>
    <line x1="500" y1="126" x2="700" y2="126" stroke="#e2e8f0" stroke-width="1"/>
    <line x1="500" y1="148" x2="700" y2="148" stroke="#e2e8f0" stroke-width="1"/>
  </g>
  <rect x="500" y="38" width="200" height="134" rx="5" fill="none" stroke="#cbd5e1" stroke-width="1"/>
  <text x="515" y="59"  font-family="ui-monospace,monospace" font-size="11" fill="#15803d">x:  22</text>
  <text x="515" y="91"  font-family="ui-monospace,monospace" font-size="11" fill="#15803d">y:   7</text>
  <text x="515" y="120" font-family="ui-monospace,monospace" font-size="11" fill="#94a3b8">hp: 100</text>
  <text x="515" y="142" font-family="ui-monospace,monospace" font-size="11" fill="#94a3b8">name: "Sam"</text>
  <text x="515" y="164" font-family="ui-monospace,monospace" font-size="11" fill="#cbd5e1">inventory, ai…</text>

  <!-- wasted annotation -->
  <text x="380" y="190" text-anchor="middle" font-family="sans-serif" font-size="11" fill="#f87171">↑ loaded into memory but not needed</text>

  <!-- divider -->
  <line x1="30" y1="205" x2="730" y2="205" stroke="#e2e8f0" stroke-width="1" stroke-dasharray="4 3"/>

  <!-- ── ECS ── -->
  <text x="380" y="224" text-anchor="middle" font-family="sans-serif" font-size="11" fill="#64748b">ECS — each field is its own packed array</text>

  <!-- Position.x row -->
  <text x="20" y="259" font-family="ui-monospace,monospace" font-size="11" fill="#475569">Pos.x</text>
  <g clip-path="url(#row-px)">
    <rect x="80"  y="238" width="540" height="30" fill="#dcfce7"/>
    <line x1="170" y1="238" x2="170" y2="268" stroke="white" stroke-width="2"/>
    <line x1="260" y1="238" x2="260" y2="268" stroke="white" stroke-width="2"/>
    <line x1="350" y1="238" x2="350" y2="268" stroke="white" stroke-width="2"/>
    <line x1="440" y1="238" x2="440" y2="268" stroke="white" stroke-width="2"/>
    <line x1="530" y1="238" x2="530" y2="268" stroke="white" stroke-width="2"/>
  </g>
  <rect x="80" y="238" width="540" height="30" rx="4" fill="none" stroke="#bbf7d0" stroke-width="1"/>
  <text x="125" y="259" text-anchor="middle" font-family="ui-monospace,monospace" font-size="11" fill="#15803d">10</text>
  <text x="215" y="259" text-anchor="middle" font-family="ui-monospace,monospace" font-size="11" fill="#15803d">55</text>
  <text x="305" y="259" text-anchor="middle" font-family="ui-monospace,monospace" font-size="11" fill="#15803d">22</text>
  <text x="395" y="259" text-anchor="middle" font-family="ui-monospace,monospace" font-size="11" fill="#15803d">78</text>
  <text x="485" y="259" text-anchor="middle" font-family="ui-monospace,monospace" font-size="11" fill="#15803d">31</text>
  <text x="575" y="259" text-anchor="middle" font-family="ui-monospace,monospace" font-size="11" fill="#15803d">···</text>

  <!-- Position.y row -->
  <text x="20" y="301" font-family="ui-monospace,monospace" font-size="11" fill="#475569">Pos.y</text>
  <g clip-path="url(#row-py)">
    <rect x="80"  y="280" width="540" height="30" fill="#dcfce7"/>
    <line x1="170" y1="280" x2="170" y2="310" stroke="white" stroke-width="2"/>
    <line x1="260" y1="280" x2="260" y2="310" stroke="white" stroke-width="2"/>
    <line x1="350" y1="280" x2="350" y2="310" stroke="white" stroke-width="2"/>
    <line x1="440" y1="280" x2="440" y2="310" stroke="white" stroke-width="2"/>
    <line x1="530" y1="280" x2="530" y2="310" stroke="white" stroke-width="2"/>
  </g>
  <rect x="80" y="280" width="540" height="30" rx="4" fill="none" stroke="#bbf7d0" stroke-width="1"/>
  <text x="125" y="301" text-anchor="middle" font-family="ui-monospace,monospace" font-size="11" fill="#15803d">4</text>
  <text x="215" y="301" text-anchor="middle" font-family="ui-monospace,monospace" font-size="11" fill="#15803d">9</text>
  <text x="305" y="301" text-anchor="middle" font-family="ui-monospace,monospace" font-size="11" fill="#15803d">7</text>
  <text x="395" y="301" text-anchor="middle" font-family="ui-monospace,monospace" font-size="11" fill="#15803d">31</text>
  <text x="485" y="301" text-anchor="middle" font-family="ui-monospace,monospace" font-size="11" fill="#15803d">12</text>
  <text x="575" y="301" text-anchor="middle" font-family="ui-monospace,monospace" font-size="11" fill="#15803d">···</text>

  <!-- Health.hp row -->
  <text x="20" y="343" font-family="ui-monospace,monospace" font-size="11" fill="#94a3b8">Hp</text>
  <g clip-path="url(#row-hp)">
    <rect x="80"  y="322" width="540" height="30" fill="#f1f5f9"/>
    <line x1="170" y1="322" x2="170" y2="352" stroke="white" stroke-width="2"/>
    <line x1="260" y1="322" x2="260" y2="352" stroke="white" stroke-width="2"/>
    <line x1="350" y1="322" x2="350" y2="352" stroke="white" stroke-width="2"/>
    <line x1="440" y1="322" x2="440" y2="352" stroke="white" stroke-width="2"/>
    <line x1="530" y1="322" x2="530" y2="352" stroke="white" stroke-width="2"/>
  </g>
  <rect x="80" y="322" width="540" height="30" rx="4" fill="none" stroke="#e2e8f0" stroke-width="1"/>
  <text x="125" y="343" text-anchor="middle" font-family="ui-monospace,monospace" font-size="11" fill="#cbd5e1">80</text>
  <text x="215" y="343" text-anchor="middle" font-family="ui-monospace,monospace" font-size="11" fill="#cbd5e1">50</text>
  <text x="305" y="343" text-anchor="middle" font-family="ui-monospace,monospace" font-size="11" fill="#cbd5e1">100</text>
  <text x="395" y="343" text-anchor="middle" font-family="ui-monospace,monospace" font-size="11" fill="#cbd5e1">60</text>
  <text x="485" y="343" text-anchor="middle" font-family="ui-monospace,monospace" font-size="11" fill="#cbd5e1">75</text>
  <text x="575" y="343" text-anchor="middle" font-family="ui-monospace,monospace" font-size="11" fill="#cbd5e1">···</text>
  <text x="632" y="343" font-family="sans-serif" font-size="11" fill="#94a3b8">not loaded</text>

  <!-- bottom note -->
  <text x="380" y="377" text-anchor="middle" font-family="sans-serif" font-size="11" fill="#22c55e">↑ reads straight through — only what's needed</text>
</svg>
